<svg id="Components" xmlns="http://www.w3.org/2000/svg" viewBox="0 0 1452.94 720"><defs><style>.cls-1{fill:#ccc;}.cls-2{fill:#e6e6e6;}.cls-3{fill:#8f8f8f;opacity:0.5;}.cls-4{fill:#e2cc5b;}.cls-26,.cls-4{opacity:0.7;}.cls-5{fill:#cbcbcb;}.cls-6{fill:none;stroke:#3c4243;stroke-miterlimit:10;stroke-width:4px;}.cls-7{fill:#f3ce53;}.cls-8{fill:#fee9a8;}.cls-9{fill:#f8e06c;}.cls-10{fill:#f6de68;}.cls-11{fill:#fae587;}.cls-12{fill:#f8e687;}.cls-13{fill:#f8eaa4;}.cls-14{fill:#f0d964;}.cls-15{fill:#f7eaa7;}.cls-16{fill:#5656be;}.cls-17{fill:#e6e6fe;}.cls-18{fill:#b1b0eb;}.cls-19{fill:#6464f0;}.cls-20{fill:#9695f8;}.cls-21{fill:#9796fa;}.cls-22{fill:#c0c4f9;}.cls-23{fill:#d6d6d6;}.cls-24{fill:#e5e5e5;}.cls-25{fill:#545a5b;}.cls-27{fill:#ff2245;}.cls-28{fill:#3d464a;}.cls-29{fill:#fed766;}</style></defs><g id="Background"><rect class="cls-1" x="1405.54" width="34.1" height="720"/><rect class="cls-2" x="1412.01" width="5.61" height="720"/><rect class="cls-3" x="1429.71" width="9.93" height="720"/><rect class="cls-1" x="18.67" width="47.88" height="718.79"/><rect class="cls-2" x="49.57" width="7.88" height="718.79"/><rect class="cls-3" x="18.67" width="13.94" height="718.79"/><path class="cls-4" d="M1448.89,620.38a3,3,0,0,1-4.25,4.25,3,3,0,0,0,5.36-1.91A3,3,0,0,0,1448.89,620.38Z"/><path class="cls-5" d="M1270.55,621.42a6,6,0,0,1-2.48,3.38h0l18.33.08,99.29,5.18,16.4,10.6V621.42Z"/><path class="cls-6" d="M1291,568.34s14.52-4,26.61,6.46c20.12,17.43,11.13,33.71,26.21,51.21,10.08,11.69,27,20.56,59.28,19"/><path class="cls-7" d="M1440.42,608c2,0,3.54,2,3.54,4.48v36.8c0,2.47-1.58,4.48-3.54,4.48Z"/><path class="cls-8" d="M1405.54,653.8c-1.91,0-3.46-2-3.46-4.48v-36.8c0-2.48,1.55-4.48,3.46-4.48Z"/><rect class="cls-9" x="1405.54" y="608.04" width="4.32" height="45.76"/><rect class="cls-10" x="1434.46" y="608.04" width="6.04" height="45.76"/><rect class="cls-11" x="1427.12" y="608.04" width="7.34" height="45.76"/><rect class="cls-12" x="1409.85" y="608.04" width="7.77" height="45.76"/><rect class="cls-13" x="1417.63" y="608.04" width="9.5" height="45.76"/><path class="cls-14" d="M1440.5,615.24h8a4.49,4.49,0,0,1,4.48,4.48v22.4a4.49,4.49,0,0,1-4.48,4.48h-8Z"/><circle class="cls-15" cx="1446.55" cy="622.29" r="3.02"/><path class="cls-4" d="M1448.46,637.21a3,3,0,0,1-2.34,4.93,3,3,0,0,1-1.91-.68,3,3,0,0,0,5.36-1.91A3,3,0,0,0,1448.46,637.21Z"/><circle class="cls-15" cx="1446.12" cy="639.12" r="3.02"/><polygon class="cls-16" points="1260.95 606.24 1241.53 606.3 1241.15 605.07 1283.09 590.2 1270.85 601.7 1260.95 606.24"/><path class="cls-17" d="M1220.86,587.42c5,16.52,1.43,25.33-8.46,28.41-8.72,2.71-19.09-5.35-23.09-18.58-4.38-14.47-1.15-25.87,8.33-28.82C1206.36,565.71,1216.84,574.19,1220.86,587.42Z"/><ellipse class="cls-18" cx="1205.08" cy="592.33" rx="14.25" ry="21.58" transform="translate(-121.6 385.01) rotate(-17.29)"/><path class="cls-19" d="M1215.16,614.52l72.75-26.27s9.59-8.41,2.8-24.38l-70.63,22.89S1228.68,607.14,1215.16,614.52Z"/><path class="cls-20" d="M1189.16,596.39l-2.06.64s-6.68-7-9.79-15.49,3.2-10,3.2-10,6.93-1.42,11.55,1.29C1192.06,572.79,1184.7,580.59,1189.16,596.39Z"/><path class="cls-21" d="M1217.73,587.94,1292,563.48s-7.4-19.4-19.83-18.69l-91.61,26.71S1203.19,571,1217.73,587.94Z"/><path class="cls-22" d="M1275.89,547.46a4.64,4.64,0,0,0-3.82-.62c-2.06.64-77.87,22.88-77.87,22.88a6.89,6.89,0,0,1,3.53,1.17Z"/><path class="cls-2" d="M1402.08,621.42v-8.95a5.07,5.07,0,0,1,.09-1H1270.86v7.76a6.5,6.5,0,0,1-.3,2.16Z"/><path class="cls-23" d="M1402.08,617.35l-126,.19a1.3,1.3,0,0,1,0-2.59h126Z"/><path class="cls-24" d="M1254,608.9v10.36s0,6.91,8.63,6.91,8.2-6.91,8.2-6.91V608.9Z"/><circle class="cls-25" cx="1262.65" cy="608.47" r="6.91"/><g class="cls-26"><ellipse cx="1205.08" cy="592.33" rx="9.21" ry="15.15" transform="translate(-126.43 418.68) rotate(-18.75)"/></g><ellipse class="cls-27" cx="1205.08" cy="592.33" rx="3.02" ry="5.61" transform="translate(-121.6 385.01) rotate(-17.29)"/><circle class="cls-28" cx="1262.65" cy="608.47" r="2.59"/><path class="cls-6" d="M1368.39,117.88s10.93-1.09,15.95,8.33-3,20.71-3.85,30.38,5.45,25.27,23.29,26.75"/><path class="cls-7" d="M1440.42,143.51c2,0,3.54,2,3.54,4.48v36.8c0,2.47-1.58,4.48-3.54,4.48Z"/><path class="cls-8" d="M1405.54,189.27c-1.91,0-3.46-2-3.46-4.48V148c0-2.48,1.55-4.48,3.46-4.48Z"/><rect class="cls-9" x="1405.54" y="143.51" width="4.32" height="45.76"/><rect class="cls-10" x="1434.46" y="143.51" width="6.04" height="45.76"/><rect class="cls-11" x="1427.12" y="143.51" width="7.34" height="45.76"/><rect class="cls-12" x="1409.85" y="143.51" width="7.77" height="45.76"/><rect class="cls-13" x="1417.63" y="143.51" width="9.5" height="45.76"/><path class="cls-14" d="M1440.5,150.71h8a4.49,4.49,0,0,1,4.48,4.48v22.4a4.49,4.49,0,0,1-4.48,4.48h-8Z"/><path class="cls-4" d="M1448.89,155.85a3,3,0,0,1-4.25,4.25,3,3,0,1,0,4.25-4.25Z"/><circle class="cls-15" cx="1446.55" cy="157.76" r="3.02"/><path class="cls-4" d="M1448.46,172.68a3,3,0,0,1-2.34,4.93,3,3,0,0,1-1.91-.68,3,3,0,0,0,5.36-1.91A3,3,0,0,0,1448.46,172.68Z"/><circle class="cls-15" cx="1446.12" cy="174.59" r="3.02"/><polygon class="cls-16" points="1328.55 145.73 1309.99 140.02 1309.99 138.73 1354.45 137 1339.34 144.34 1328.55 145.73"/><path class="cls-17" d="M1295.86,115.85c-.12,17.27-6.16,24.61-16.52,24.61-9.13,0-16.64-10.78-16.53-24.61.12-15.11,6.6-25,16.52-25C1288.46,90.81,1296,102,1295.86,115.85Z"/><ellipse class="cls-18" cx="1279.34" cy="115.85" rx="14.25" ry="21.58"/><path class="cls-19" d="M1282.36,140l77.27-3.46s11.66-5.18,9.93-22.45l-74.25.87S1297.47,137,1282.36,140Z"/><path class="cls-20" d="M1262.93,115h-2.16s-4.31-8.63-4.75-17.7,6-8.63,6-8.63,7,.7,10.64,4.67C1272.71,93.33,1263.36,98.59,1262.93,115Z"/><path class="cls-21" d="M1292.72,115.42l78.13-1.3s-1.29-20.72-13.38-23.74l-95.4-1.72S1283.87,94.92,1292.72,115.42Z"/><path class="cls-22" d="M1360.27,94.05a4.64,4.64,0,0,0-3.45-1.73c-2.16,0-81.16-1.29-81.16-1.29a6.84,6.84,0,0,1,3,2.16Z"/><path class="cls-5" d="M1345.23,156.89a6,6,0,0,1-2.48,3.38h0l18.32.08,27.63,5.18,13.38,10.61V156.89Z"/><path class="cls-2" d="M1402.08,156.89v-8.95a5.15,5.15,0,0,1,.09-1h-56.63v7.76a6.5,6.5,0,0,1-.3,2.16Z"/><path class="cls-23" d="M1402.08,152.82l-51.37.19a1.3,1.3,0,0,1,0-2.59h51.37Z"/><path class="cls-24" d="M1328.7,144.37v10.36s0,6.91,8.63,6.91,8.2-6.91,8.2-6.91V144.37Z"/><circle class="cls-25" cx="1337.33" cy="143.94" r="6.91"/><g class="cls-26"><ellipse cx="1279.34" cy="115.85" rx="9.21" ry="15.15" transform="translate(-1.74 21.14) rotate(-0.95)"/></g><ellipse class="cls-27" cx="1279.34" cy="115.85" rx="3.02" ry="5.61"/><circle class="cls-28" cx="1337.33" cy="143.94" r="2.59"/><path class="cls-6" d="M123,525.42s-15-3.68-23.68,8.41,3.32,28.73,2.66,47.37-12.45,36.17-31.85,37"/><path class="cls-7" d="M17.57,562.45c-2.74,0-5,2.82-5,6.29v51.67c0,3.47,2.23,6.29,5,6.29Z"/><path class="cls-8" d="M66.54,626.7c2.68,0,4.85-2.82,4.85-6.29V568.74c0-3.47-2.17-6.29-4.85-6.29Z"/><rect class="cls-9" x="60.48" y="562.45" width="6.06" height="64.24"/><rect class="cls-10" x="17.45" y="562.45" width="8.48" height="64.24"/><rect class="cls-11" x="25.94" y="562.45" width="10.3" height="64.24"/><rect class="cls-12" x="49.57" y="562.45" width="10.91" height="64.24"/><rect class="cls-13" x="36.24" y="562.45" width="13.33" height="64.24"/><path class="cls-29" d="M17.45,572.56H6.29A6.29,6.29,0,0,0,0,578.85V610.3a6.28,6.28,0,0,0,6.29,6.28H17.45Z"/><path class="cls-4" d="M5.68,579.77a4.24,4.24,0,0,0,6,6,4.24,4.24,0,1,1-6-6Z"/><circle class="cls-15" cx="8.97" cy="582.45" r="4.24"/><path class="cls-4" d="M6.29,603.41a4.2,4.2,0,0,0-1,2.68,4.24,4.24,0,0,0,6.92,3.29,4.24,4.24,0,1,1-6-6Z"/><circle class="cls-15" cx="9.57" cy="606.09" r="4.24"/><polygon class="cls-16" points="170.19 564.56 197.36 562.35 197.75 560.57 137.31 544.76 155.81 559.39 170.19 564.56"/><path class="cls-17" d="M224,533.47c-5.05,23.71,1,35.6,15.22,38.73,12.51,2.76,26.07-9.75,30.1-28.74,4.4-20.75-1.48-36.32-15.09-39.32C241.75,501.38,228.08,514.49,224,533.47Z"/><ellipse class="cls-18" cx="246.69" cy="538.47" rx="30.3" ry="20" transform="translate(-332.26 663.44) rotate(-77.57)"/><path class="cls-19" d="M235.24,570.7l-104.9-28.09s-14.41-10.63-6.82-33.78l101.53,23.63S215.44,562,235.24,570.7Z"/><path class="cls-20" d="M269.44,542.24l3,.66s8.53-10.54,11.86-22.84-5.68-13.66-5.68-13.66-9.86-1.16-16,3.18C262.58,509.58,273.81,519.62,269.44,542.24Z"/><path class="cls-21" d="M228.47,533.83,121.74,508.44s8-28,25.52-28.51L278.58,506.4S246.8,508.39,228.47,533.83Z"/><path class="cls-22" d="M142.31,484.11a6.55,6.55,0,0,1,5.25-1.32c3,.65,111.66,22.76,111.66,22.76a9.56,9.56,0,0,0-4.79,2Z"/><path class="cls-5" d="M151.21,581.24A8.54,8.54,0,0,0,154.7,586h0l-25.73.1-38.79,7.27-18.79,14.9v-27Z"/><path class="cls-2" d="M71.39,581.24V568.67a8.61,8.61,0,0,0-.11-1.36h79.5v10.9a9.41,9.41,0,0,0,.42,3Z"/><path class="cls-23" d="M71.39,575.52l72.12.27a1.82,1.82,0,0,0,0-3.64H71.39Z"/><path class="cls-24" d="M174.42,563.66v14.55s.06,9.7-12.12,9.7-11.51-9.7-11.51-9.7V563.66Z"/><circle class="cls-25" cx="162.3" cy="563.06" r="9.7"/><g class="cls-26"><ellipse cx="246.69" cy="538.47" rx="22.17" ry="11.98" transform="translate(-335.02 649.88) rotate(-76.23)"/></g><ellipse class="cls-27" cx="246.69" cy="538.47" rx="7.88" ry="4.24" transform="translate(-332.26 663.44) rotate(-77.57)"/><circle class="cls-28" cx="162.3" cy="563.06" r="3.64"/></g></svg>