<svg id="Components" xmlns="http://www.w3.org/2000/svg" viewBox="0 0 95.3 80"><defs><style>.cls-1{fill:#f7f7f7;}</style></defs><path class="cls-1" d="M17,22.2c7.7-1.2,13.2,3.6,13.6,11.3C23.6,35.6,17.2,30.5,17,22.2Z"/><path class="cls-1" d="M83.2,23.3c1.2,7.3-4.6,13.1-12.6,12.3C69.7,28.1,75.4,22.5,83.2,23.3Z"/><path class="cls-1" d="M45.6,20.1c6.9,4.4,8.1,11.9,3.1,17.7C42.1,34.2,40.7,26.6,45.6,20.1Z"/><path class="cls-1" d="M55.7,43.9c-.1-8.4,4.8-13.2,12.6-12.6,1,3.5-.5,6.3-2.7,8.9C63,43.2,60,44.6,55.7,43.9Z"/><path class="cls-1" d="M14.2,61.5C15.4,53.2,22,49,29.1,51.7,28.3,59,22.4,63,14.2,61.5Z"/><path class="cls-1" d="M9.6,35.1c7.3-3.2,13.3-.6,16.4,6.9C19.3,46,12.4,43.2,9.6,35.1Z"/><path class="cls-1" d="M95.3,29c-1.3,8-8.1,11.7-15.4,8.9C81.5,30.2,86.9,27,95.3,29Z"/><path class="cls-1" d="M29,61.3c1.3-4.8,4-6.2,8.5-4C35.6,62,33.8,63,29,61.3Z"/><path class="cls-1" d="M37.8,44.1c-5.3.9-6.6.2-8.8-4.3C33.1,37.6,35.9,38.9,37.8,44.1Z"/><path class="cls-1" d="M69.5,42.7c2.9-4.2,4.4-4.7,8.8-2.9C76.4,44.9,72.9,45.9,69.5,42.7Z"/><path class="cls-1" d="M17,49c-2.5,4.7-4.4,5.4-9.1,3.5C9.5,48.2,11.2,47.5,17,49Z"/><path class="cls-1" d="M78.6,45.1c3.5-3.9,5-4.3,9.1-2.1C85.8,47.7,82.1,48.5,78.6,45.1Z"/><path class="cls-1" d="M51,61.6c3.7-13.3,22.7-14.3,22.7-14.3s-16.6-3.7-24,5.7c0,0,1.2-15.4,17-31.3,0,0-13.9,9.8-19.5,22.5a6.94,6.94,0,0,0-.5,1.3C45.6,42.4,40.4,29.9,32,29.2c0,0,7.9,3.6,10.8,20.8,0,0-13.7-6.4-27.9-4.8,0,0,26.3,3.7,27.8,16.9.4,3.7,4.2,14.9-9.6,17.8,0,0,21.2-.6,28.9.1-10.4-3.3-11.1-7.2-11.3-10.5C50.3,63.4,51,61.6,51,61.6Z"/><path class="cls-1" d="M65.1,52.3c7-2.7,13.7,1.5,14.9,9.8C71.7,63.6,65.8,59.7,65.1,52.3Z"/><path class="cls-1" d="M56.6,57.9c4.5-2.1,7.2-.8,8.5,4C60.3,63.6,58.5,62.6,56.6,57.9Z"/><path class="cls-1" d="M86.2,53.1c-4.7,1.9-6.6,1.2-9.1-3.5C82.9,48.1,84.6,48.8,86.2,53.1Z"/><path class="cls-1" d="M11.5,44.4c-4.1,3-6.1,2.7-9.7-1.2C7.1,40.3,8.9,40.6,11.5,44.4Z"/><path class="cls-1" d="M7.1,25.9c4.4-2.4,7.2-1.3,8.7,3.4C11.1,31.1,9.2,30.4,7.1,25.9Z"/><path class="cls-1" d="M34.6,21.1c5,.1,7,2.3,6,7.2C35.6,27.7,34.2,26.2,34.6,21.1Z"/><path class="cls-1" d="M54.2,27.9c-1.4-4.8.2-7.3,5.1-7.9C60.2,25,59.1,26.8,54.2,27.9Z"/><path class="cls-1" d="M62.8,3.8c2.9,7.7-.6,14.4-8.1,16.1C51.5,13,55,6,62.8,3.8Z"/><path class="cls-1" d="M78.3,2.8c.4,8.2-5,13.5-12.6,12.8C64.8,8.1,70.2,2.6,78.3,2.8Z"/><path class="cls-1" d="M42.1,21c-7.4-2-10.6-8.9-7.3-16.4C42.5,7.2,45.6,14.3,42.1,21Z"/><path class="cls-1" d="M31.2,20.9c-7.5,1.9-13.6-2.5-14.5-10.6C24.7,8.7,30.9,13.3,31.2,20.9Z"/><path class="cls-1" d="M8.3,15.9c4.7-1.8,7.3-.4,8.2,4.5C11.7,21.6,9.8,20.7,8.3,15.9Z"/><path class="cls-1" d="M0,32.7c4.7-1.7,7.3-.2,8.2,4.7C3.2,38.5,1.4,37.5,0,32.7Z"/><path class="cls-1" d="M68.6,22.9c.5-5,3-6.7,7.8-5.3C75.2,22.5,73.6,23.8,68.6,22.9Z"/><path class="cls-1" d="M78.3,20.6c.8-4.9,3.3-6.5,8-4.9C84.9,20.6,83.2,21.7,78.3,20.6Z"/><path class="cls-1" d="M86.2,25.4c1.2-4.8,3.9-6.2,8.4-4.1C92.8,26,91,27,86.2,25.4Z"/><path class="cls-1" d="M25.3,3.1c5,.4,6.8,2.8,5.5,7.6C25.9,9.7,24.6,8.1,25.3,3.1Z"/><path class="cls-1" d="M43.1,2.5c4.7,1.8,5.7,4.6,3.1,8.9C41.8,9,41,7.1,43.1,2.5Z"/><path class="cls-1" d="M53,0c3,4,2.3,7-2.1,9.2C48.4,4.7,48.8,2.7,53,0Z"/><path class="cls-1" d="M50.9,10.6c3,4,2.3,7-2.1,9.2C46.3,15.4,46.7,13.3,50.9,10.6Z"/></svg>